<svg width="630" height="308" viewBox="0 0 630 308" fill="none" xmlns="http://www.w3.org/2000/svg">
<path d="M178 166.913C173.246 170.304 170.341 172.913 158.193 172.913H152.383V83.9565C152.383 74.0435 152.383 71.1739 157.136 67H97.451C97.9792 67.5217 99.5638 68.8261 99.5638 70.3913C99.5638 72.4783 97.7151 74.0435 96.9228 74.8261L0 166.913C1.84866 169 2.64095 170.043 3.16914 172.913L7.65875 193C7.92285 194.304 8.18694 194.826 8.18694 196.13C8.18694 196.913 7.92285 197.174 7.65875 197.957H120.163V212.304C120.163 229.522 113.825 235 104.846 241H168.493C156.608 233.435 152.383 226.391 152.383 212.304V197.957H156.872C164.795 197.957 168.493 194.304 171.134 187L178 166.913ZM120.163 172.913H30.635L120.163 87.8696V172.913Z" fill="black"/>
<path d="M630 166.913C625.246 170.304 622.341 172.913 610.193 172.913H604.383V83.9565C604.383 74.0435 604.383 71.1739 609.136 67H549.451C549.979 67.5217 551.564 68.8261 551.564 70.3913C551.564 72.4783 549.715 74.0435 548.923 74.8261L452 166.913C453.849 169 454.641 170.043 455.169 172.913L459.659 193C459.923 194.304 460.187 194.826 460.187 196.13C460.187 196.913 459.923 197.174 459.659 197.957H572.163V212.304C572.163 229.522 565.825 235 556.846 241H620.493C608.608 233.435 604.383 226.391 604.383 212.304V197.957H608.872C616.795 197.957 620.493 194.304 623.134 187L630 166.913ZM572.163 172.913H482.635L572.163 87.8696V172.913Z" fill="black"/>
<path d="M270.175 38.3093C270.602 29.8086 271.392 21.4078 273.465 13.1404C274.156 10.3735 275.702 8.60668 278.334 7.57325C284.388 5.17304 290.705 3.90626 297.021 2.57281C305.411 0.805982 313.932 0.172588 322.454 0.00590635C325.118 -0.02743 327.816 0.072579 330.481 0.505951C332.39 0.839314 333.936 1.63939 335.12 3.30621C338.706 8.30665 341.273 13.8738 343.938 19.4076C344.628 20.8744 344.892 22.5746 346.208 23.708C346.241 24.2414 346.208 24.8081 346.438 25.3415C347.754 28.6751 349.169 31.9421 350.32 35.3424C351.077 37.6093 352.327 39.7761 352.459 42.243C351.439 43.2431 350.386 44.2099 349.366 45.2433C345.747 48.8103 341.503 51.4438 337.061 53.6774C332.455 56.0109 327.619 57.7444 322.618 59.0779C316.466 60.7113 310.247 61.6781 303.931 61.9781C300.937 62.1114 297.976 62.1448 294.949 61.9781C291.527 61.7781 288.105 61.3447 284.717 60.778C279.683 59.9446 274.912 58.1778 270.208 56.2443C270.109 55.7776 269.879 55.2775 269.879 54.8108C270.043 49.2436 269.583 43.7765 270.175 38.3093ZM317.058 3.17286C311.267 3.43955 305.411 4.10627 299.653 5.33972C294.686 6.40648 289.75 7.50658 285.046 9.57343C282.71 10.6069 282.348 11.6403 283.795 13.6738C284.026 13.9738 284.289 14.2738 284.552 14.5405C289.224 19.0743 294.521 22.5746 300.476 25.1748C304.753 27.0417 308.734 26.4416 312.583 23.808C315.479 21.8079 317.88 19.3076 320.183 16.7407C322.651 14.0072 324.757 10.9402 325.941 7.37322C326.533 5.6064 326.106 4.773 324.395 4.17295C322.059 3.27286 319.591 3.27286 317.058 3.17286Z" fill="#202125"/>
<path d="M282.15 119.583C278.992 123.95 276.393 128.584 275.011 133.851C273.925 137.885 273.728 142.052 273.3 146.186C272.28 156.52 271.228 166.854 270.833 177.222C270.57 184.089 271.557 190.856 272.576 197.59C274.485 210.325 276.524 223.059 280.571 235.294C284.026 245.794 288.073 256.095 291.823 266.496C296.66 279.797 301.726 293.032 306.201 306.467C306.332 306.867 306.596 307.267 306.431 307.867C305.016 306.933 303.865 305.766 302.845 304.5C294.324 293.999 285.934 283.364 278.762 271.863C272.905 262.496 267.049 253.128 262.542 242.994C257.015 230.46 252.441 217.592 250.04 204.024C248.263 194.023 247.112 183.922 248.888 173.888C252.244 154.82 260.239 138.085 274.485 124.784C276.755 122.683 279.189 120.783 281.887 119.283C281.986 119.417 282.085 119.517 282.15 119.583Z" fill="#04070E"/>
<path d="M348.28 119.45C352.59 121.85 356.275 125.084 359.598 128.717C371.278 141.618 378.253 156.92 381.214 174.055C382.431 181.155 382.069 188.356 381.247 195.49C378.845 216.158 372.002 235.36 362.197 253.528C352.36 271.797 340.417 288.665 327.191 304.566C326.171 305.8 325.02 306.9 323.605 308C323.572 306.7 324.099 305.733 324.46 304.766C331.567 284.231 339.233 263.863 346.767 243.494C351.439 230.86 354.235 217.759 356.44 204.524C357.558 197.89 358.545 191.256 359.137 184.556C359.664 178.655 359.138 172.788 358.677 166.921C357.986 158.22 356.999 149.553 356.275 140.885C355.617 132.951 352.788 125.95 347.984 119.717C348.083 119.65 348.182 119.55 348.28 119.45Z" fill="#04070E"/>
<path d="M270.175 38.3092C269.583 43.7764 270.044 49.2769 269.912 54.744C269.912 55.2107 270.109 55.7108 270.241 56.1775C270.011 58.2443 270.471 60.2779 270.504 62.3447C270.537 63.6448 271.063 64.5116 272.018 65.0783C274.913 66.7451 277.94 68.1786 281.131 69.1453C286.198 70.6788 291.429 71.5122 296.693 71.8122C302.549 72.1456 308.406 71.9122 314.196 71.0788C321.368 70.0454 328.409 68.3786 335.154 65.545C342.194 62.5781 348.676 58.8444 354.104 53.3439C354.598 52.8439 355.256 52.3772 355.058 51.5437C354.269 48.4101 353.874 45.1432 352.426 42.2096C352.295 39.7427 351.045 37.5758 350.288 35.309C349.136 31.942 347.722 28.6417 346.406 25.3081C346.175 24.7747 346.208 24.2413 346.175 23.6746C351.735 25.0747 356.999 27.2082 361.671 30.6419C372.035 38.2092 374.141 49.7436 367.133 60.5779C362.231 68.1452 355.322 73.479 347.656 77.8127C336.108 84.3133 323.671 87.947 310.61 89.5471C309.623 89.6805 309.327 90.0805 309.096 90.9139C308.767 92.2474 308.373 93.5475 307.846 94.8476C307.55 93.1475 308.537 91.6473 308.471 89.8472C304.655 90.2139 300.838 90.3472 297.022 90.2805C287.514 90.1138 278.269 88.647 269.55 84.6134C266.194 83.0799 263.069 81.113 260.404 78.5128C253.034 71.3788 251.685 62.1447 256.62 53.0439C259.91 46.9433 264.714 42.3096 270.175 38.3092Z" fill="#0F1116"/>
<path d="M281.165 94.9143C281.823 96.0478 282.481 97.1812 283.106 98.3146C284.587 101.015 286.034 103.782 287.712 106.349C288.929 108.216 290.443 109.782 292.285 111.082C294.852 112.916 297.385 112.716 299.951 111.149C301.596 110.149 303.011 108.816 304.458 107.549C307.058 105.315 309.854 104.182 313.21 105.782C313.736 106.049 314.131 105.849 314.559 105.582C317.191 103.982 319.79 104.282 322.323 105.782C323.87 106.715 325.416 107.682 326.929 108.649C329.068 110.049 331.404 110.282 333.871 109.849C335.089 109.649 335.878 108.816 336.701 107.982C339.958 104.482 341.965 100.281 343.314 95.6811C343.807 94.0143 344.136 92.2808 345.189 90.5139C346.209 98.0813 346.308 105.282 343.972 112.349C341.044 121.183 334.464 126.651 326.6 130.684C317.454 135.385 308.308 134.785 299.359 130.151C295.477 128.117 292.614 124.75 289.522 121.65C283.369 115.45 281.165 107.782 280.836 99.3481C280.77 97.9146 280.836 96.4811 280.836 95.0477C280.967 95.0144 281.066 94.9477 281.165 94.9143ZM313.506 122.25C318.869 122.25 323.442 120.25 326.206 116.916C326.929 116.05 327.522 115.116 327.818 114.049C328.114 113.049 327.916 112.449 326.666 112.583C325.186 112.749 323.705 112.749 322.258 112.949C318.606 113.416 314.954 112.016 311.203 113.483C308.341 114.616 305.018 114.116 301.925 114.249C301.465 114.283 300.806 114.116 300.642 114.649C300.543 114.949 300.905 115.45 301.168 115.816C304.393 120.05 308.801 122.017 313.506 122.25Z" fill="#06080F"/>
<path d="M316.662 277.197C317.518 277.131 317.682 277.664 317.616 278.364C316.958 283.998 317.485 289.665 317.287 295.299C317.222 297.432 317.057 297.533 314.984 297.533C313.175 297.533 311.365 297.466 309.556 297.566C308.371 297.633 308.141 297.132 308.075 296.032C308.009 294.132 308.437 292.299 308.437 290.399C308.437 285.398 308.24 280.398 308.503 275.397C308.766 270.563 308.47 265.73 308.832 260.963C309.161 256.696 308.964 252.428 309.095 248.161C309.325 240.461 309.26 232.76 309.523 225.059C309.687 219.626 309.424 214.192 309.819 208.758C310.214 203.057 309.753 197.324 310.181 191.656C310.543 186.823 310.345 182.022 310.411 177.188C310.477 170.588 311.036 164.021 310.707 157.42C311.563 155.553 312.977 155.053 315.017 155.153C317.156 155.253 319.13 155.12 320.117 157.487C319.196 158.253 319.821 159.287 319.623 160.187C319.623 165.454 319.854 170.755 319.557 176.022C319.261 181.389 319.623 186.789 319.228 192.123C318.899 196.724 319.196 201.324 318.965 205.924C318.571 213.292 318.899 220.692 318.57 228.026C318.34 232.693 318.603 237.327 318.307 241.994C317.88 248.395 318.307 254.829 317.945 261.196C317.682 265.73 317.814 270.297 317.682 274.83C317.649 275.464 317.88 276.264 316.794 276.231C316.695 275.797 316.629 275.364 316.465 274.964C315.774 273.33 314.162 272.497 312.451 272.864C310.839 273.23 309.72 274.63 309.753 276.364C309.753 278.131 310.97 279.564 312.648 279.864C314.228 280.131 315.544 279.298 316.662 277.197ZM311.069 202.391C311.036 204.358 312.583 206.024 314.524 206.058C316.432 206.091 318.077 204.424 318.077 202.457C318.077 200.557 316.531 198.957 314.655 198.924C312.714 198.857 311.102 200.391 311.069 202.391ZM310.641 226.526C310.641 228.46 312.155 230.06 313.997 230.093C315.938 230.16 317.616 228.526 317.649 226.593C317.682 224.593 316.136 222.959 314.162 222.959C312.188 222.926 310.641 224.526 310.641 226.526ZM313.537 254.929C315.511 254.962 317.189 253.395 317.189 251.462C317.189 249.528 315.544 247.861 313.635 247.861C311.727 247.861 310.115 249.495 310.115 251.462C310.115 253.362 311.629 254.895 313.537 254.929ZM315.083 179.922C317.024 179.922 318.636 178.255 318.57 176.288C318.538 174.322 316.893 172.755 314.919 172.788C313.01 172.855 311.497 174.422 311.497 176.322C311.53 178.322 313.142 179.955 315.083 179.922Z" fill="#E8E8E6"/>
<path d="M320.086 157.453C319.066 155.086 317.092 155.186 314.986 155.12C312.946 155.053 311.565 155.52 310.676 157.387C308.768 159.22 306.531 160.487 304.162 161.587C302.188 162.12 300.214 162.687 298.207 163.22C294.095 163.854 294.062 163.854 293.14 159.653C291.857 153.886 291.66 148.119 293.371 142.385C294.226 139.485 294.621 139.285 297.45 140.418C300.247 141.552 303.011 142.685 305.972 143.285C307.946 143.685 309.558 144.886 311.005 146.286C311.334 146.619 311.598 147.152 312.124 147.186C314.263 147.219 316.401 147.219 318.54 147.219C319.033 147.219 319.23 146.719 319.527 146.419C321.336 144.652 323.442 143.419 325.942 142.985C328.772 142.485 331.305 141.085 333.97 140.152C335.944 139.485 336.372 139.618 336.997 141.619C338.346 145.919 339.168 150.319 338.477 154.886C338.214 156.553 337.951 158.22 337.655 159.887C336.931 161.187 337.128 163.054 335.418 163.721C334.858 163.654 334.299 163.621 333.74 163.554C331.239 162.82 328.706 162.087 326.205 161.354C323.935 160.42 321.895 159.12 320.086 157.453ZM301.892 153.986C302.616 154.553 302.912 154.853 303.274 155.053C304.787 155.886 310.051 154.953 311.334 153.686C311.63 153.386 311.762 153.02 311.63 152.653C311.4 152.086 311.005 152.486 310.676 152.52C307.88 152.92 305.215 153.853 301.892 153.986ZM328.64 154.02C325.613 153.686 323.047 153.153 320.448 152.586C319.987 152.486 319.23 152.22 319.033 152.92C318.803 153.72 319.592 153.886 320.119 154.086C321.237 154.52 322.389 154.82 323.507 155.253C325.35 155.92 326.896 155.486 328.64 154.02ZM303.734 146.419C305.873 148.186 308.439 149.053 310.907 150.119C311.17 150.219 311.466 150.219 311.598 149.886C311.762 149.453 311.499 149.119 311.203 148.886C308.998 147.252 306.597 146.152 303.734 146.419ZM326.896 146.419C324.067 146.152 321.665 147.252 319.461 148.853C319.165 149.086 318.869 149.386 319 149.819C319.099 150.153 319.395 150.219 319.658 150.119C322.126 148.986 324.758 148.219 326.896 146.419Z" fill="#05080F"/>
<path d="M298.205 163.221C300.179 162.687 302.153 162.12 304.16 161.587C304.226 162.12 303.996 162.554 303.634 162.921C301.495 165.054 299.389 167.254 297.218 169.354C295.803 170.721 295.441 170.688 294.421 169.021C292.711 166.254 291 163.487 289.453 160.62C286.131 154.486 282.972 148.286 280.867 141.619C280.603 140.785 280.603 140.719 280.735 139.418C281.821 142.885 283.202 145.886 284.716 148.786C287.512 154.186 290.441 159.52 293.994 164.421C295.343 166.254 295.639 166.254 297.251 164.654C297.646 164.287 298.238 163.954 298.205 163.221Z" fill="#D7D6D2"/>
<path d="M333.74 163.554C334.3 163.62 334.859 163.654 335.418 163.72C335.023 165.954 333.378 167.454 332.194 169.188C331.733 169.854 331.075 169.188 330.615 168.854C327.423 166.521 324.397 163.987 321.501 161.287C320.942 160.787 320.514 160.053 319.593 160.153C319.791 159.253 319.165 158.22 320.087 157.453C321.896 159.087 323.936 160.42 326.206 161.32C327.423 162.887 329.134 163.72 330.779 164.687C331.174 164.921 331.733 165.054 331.964 164.587C332.359 163.82 333.214 164.02 333.74 163.554Z" fill="#D7D6D2"/>
<path d="M337.656 159.853C337.919 158.187 338.183 156.52 338.479 154.853C340.551 152.553 341.9 149.786 343.578 147.186C345.618 144.052 347.428 140.752 349.435 137.585C350.158 136.418 350.619 135.151 351.145 133.551C351.31 135.851 350.915 137.718 349.928 139.452C346.243 145.919 342.558 152.386 338.874 158.887C338.578 159.353 338.347 159.887 337.656 159.853Z" fill="#D7D6D2"/>
<path d="M316.664 277.197C315.546 279.297 314.23 280.131 312.585 279.831C310.907 279.531 309.689 278.064 309.689 276.33C309.689 274.597 310.775 273.197 312.387 272.83C314.098 272.463 315.71 273.297 316.401 274.93C316.566 275.33 316.631 275.764 316.73 276.197C316.697 276.53 316.697 276.864 316.664 277.197Z" fill="#2A2A2B"/>
<path d="M317.092 101.282C310.61 102.682 307.945 101.548 307.748 96.9146C309.722 101.482 313.473 101.148 317.092 101.282Z" fill="#202125"/>
<path d="M347.953 119.717C347.854 119.583 347.492 119.483 347.788 119.25C347.953 119.116 348.216 119.183 348.282 119.45C348.183 119.55 348.084 119.65 347.953 119.717Z" fill="#04070E"/>
<path d="M307.649 95.4479C307.617 95.4479 307.584 95.4145 307.551 95.4145C307.584 95.3478 307.617 95.3145 307.649 95.2478C307.682 95.2811 307.748 95.3145 307.748 95.3478C307.748 95.3812 307.682 95.4145 307.649 95.4479Z" fill="#0F1116"/>
<path d="M282.413 119.183C282.446 119.417 282.348 119.517 282.15 119.583C282.084 119.483 281.986 119.383 281.92 119.283C282.084 119.183 282.216 118.883 282.446 119.183H282.413Z" fill="#04070E"/>
<path d="M282.446 119.217C282.315 119.083 282.348 118.983 282.512 118.917C282.545 118.917 282.611 118.95 282.644 118.95C282.578 119.017 282.479 119.117 282.414 119.183L282.446 119.217Z" fill="#04070E"/>
<path d="M352.49 42.2097C353.937 45.1766 354.332 48.4102 355.122 51.5438C355.319 52.3772 354.661 52.8439 354.168 53.344C348.739 58.8445 342.258 62.5781 335.217 65.5451C328.472 68.3787 321.432 70.0455 314.26 71.0789C308.469 71.9123 302.613 72.1457 296.756 71.8123C291.492 71.5123 286.261 70.6455 281.195 69.1454C278.003 68.1786 274.976 66.7452 272.081 65.0784C271.094 64.5116 270.568 63.6449 270.568 62.3448C270.535 60.2779 270.074 58.2444 270.304 56.1776C275.009 58.0777 279.78 59.8779 284.814 60.7113C288.202 61.278 291.591 61.7114 295.046 61.9114C298.04 62.0781 301.001 62.0781 304.027 61.9114C310.377 61.6114 316.595 60.6113 322.715 59.0112C327.716 57.711 332.552 55.9442 337.158 53.6107C341.6 51.3771 345.844 48.7102 349.463 45.1766C350.417 44.1765 351.437 43.1764 352.49 42.2097Z" fill="#04070E"/>
<path d="M317.658 2.71765C320.292 2.82372 322.858 2.85908 325.287 3.74295C327.066 4.37934 327.477 5.26321 326.895 7.13702C325.664 10.9554 323.474 14.1727 320.908 17.0718C318.513 19.7941 316.016 22.4457 313.005 24.567C309.002 27.3954 304.896 27.9965 300.414 26.0166C294.256 23.2943 288.714 19.5466 283.855 14.7383C283.582 14.4555 283.308 14.1373 283.068 13.8191C281.563 11.6625 281.939 10.5664 284.368 9.47044C289.227 7.27844 294.393 6.11174 299.559 4.98038C305.546 3.7076 311.636 3.00049 317.658 2.71765Z" fill="#06080F"/>
<path d="M311.069 202.391C311.102 200.424 312.747 198.857 314.688 198.924C316.563 198.99 318.11 200.59 318.11 202.457C318.11 204.391 316.432 206.058 314.556 206.058C312.582 205.991 311.036 204.357 311.069 202.391Z" fill="#2A2A2B"/>
<path d="M310.643 226.526C310.643 224.526 312.222 222.926 314.163 222.959C316.137 222.992 317.683 224.626 317.65 226.593C317.617 228.526 315.94 230.16 313.998 230.093C312.123 230.06 310.643 228.46 310.643 226.526Z" fill="#2A2A2B"/>
<path d="M313.537 254.929C311.629 254.895 310.115 253.362 310.115 251.462C310.115 249.495 311.727 247.861 313.636 247.861C315.544 247.861 317.189 249.528 317.189 251.462C317.189 253.395 315.544 254.962 313.537 254.929Z" fill="#2A2A2B"/>
<path d="M315.085 179.922C313.11 179.922 311.531 178.322 311.531 176.355C311.531 174.421 313.045 172.855 314.953 172.821C316.894 172.755 318.539 174.321 318.605 176.322C318.638 178.255 317.059 179.922 315.085 179.922Z" fill="#2A2A2B"/>
<path d="M301.889 153.986C305.212 153.886 307.877 152.92 310.64 152.52C310.969 152.453 311.397 152.053 311.594 152.653C311.759 153.053 311.594 153.386 311.298 153.686C310.015 154.953 304.751 155.886 303.238 155.053C302.909 154.853 302.612 154.553 301.889 153.986Z" fill="#2A2A2B"/>
<path d="M328.641 154.02C326.897 155.453 325.35 155.92 323.541 155.253C322.422 154.853 321.271 154.52 320.152 154.086C319.626 153.886 318.836 153.72 319.066 152.92C319.264 152.22 320.021 152.486 320.481 152.586C323.047 153.153 325.647 153.686 328.641 154.02Z" fill="#2A2A2B"/>
<path d="M303.732 146.419C306.595 146.186 308.996 147.252 311.168 148.886C311.464 149.119 311.76 149.453 311.563 149.886C311.431 150.219 311.135 150.219 310.872 150.119C308.437 149.019 305.871 148.186 303.732 146.419Z" fill="#2A2A2B"/>
<path d="M326.895 146.419C324.757 148.252 322.124 148.986 319.657 150.119C319.394 150.219 319.098 150.186 318.999 149.819C318.867 149.353 319.163 149.053 319.46 148.852C321.664 147.252 324.066 146.152 326.895 146.419Z" fill="#2A2A2B"/>
</svg>
