<svg width="20" height="20" viewBox="0 0 20 20" fill="none" xmlns="http://www.w3.org/2000/svg">
<g id="vuesax/bold/close-circle">
<g id="close-circle">
<path id="Vector" d="M10.0013 1.66675C5.40964 1.66675 1.66797 5.40841 1.66797 10.0001C1.66797 14.5917 5.40964 18.3334 10.0013 18.3334C14.593 18.3334 18.3346 14.5917 18.3346 10.0001C18.3346 5.40841 14.593 1.66675 10.0013 1.66675ZM12.8013 11.9167C13.043 12.1584 13.043 12.5584 12.8013 12.8001C12.6763 12.9251 12.518 12.9834 12.3596 12.9834C12.2013 12.9834 12.043 12.9251 11.918 12.8001L10.0013 10.8834L8.08464 12.8001C7.95964 12.9251 7.8013 12.9834 7.64297 12.9834C7.48464 12.9834 7.3263 12.9251 7.2013 12.8001C6.95964 12.5584 6.95964 12.1584 7.2013 11.9167L9.11797 10.0001L7.2013 8.08342C6.95964 7.84175 6.95964 7.44175 7.2013 7.20008C7.44297 6.95842 7.84297 6.95842 8.08464 7.20008L10.0013 9.11675L11.918 7.20008C12.1596 6.95842 12.5596 6.95842 12.8013 7.20008C13.043 7.44175 13.043 7.84175 12.8013 8.08342L10.8846 10.0001L12.8013 11.9167Z" fill="black"/>
</g>
</g>
</svg>
