<svg width="24" height="24" viewBox="0 0 24 24" fill="none" xmlns="http://www.w3.org/2000/svg">
<path d="M21.2995 7.57999H15.7195C15.3295 7.57999 15.0195 7.26999 15.0195 6.87999C15.0195 6.48999 15.3295 6.17999 15.7195 6.17999H21.2995C21.6895 6.17999 21.9995 6.48999 21.9995 6.87999C21.9995 7.26999 21.6895 7.57999 21.2995 7.57999Z" fill="black"/>
<path d="M6.42 7.57999H2.7C2.31 7.57999 2 7.26999 2 6.87999C2 6.48999 2.31 6.17999 2.7 6.17999H6.42C6.81 6.17999 7.12 6.48999 7.12 6.87999C7.12 7.26999 6.8 7.57999 6.42 7.57999Z" fill="black"/>
<path d="M10.1404 10.83C12.322 10.83 14.0904 9.06152 14.0904 6.87999C14.0904 4.69847 12.322 2.92999 10.1404 2.92999C7.95891 2.92999 6.19043 4.69847 6.19043 6.87999C6.19043 9.06152 7.95891 10.83 10.1404 10.83Z" fill="black"/>
<path d="M21.2999 17.81H17.5799C17.1899 17.81 16.8799 17.5 16.8799 17.11C16.8799 16.72 17.1899 16.41 17.5799 16.41H21.2999C21.6899 16.41 21.9999 16.72 21.9999 17.11C21.9999 17.5 21.6899 17.81 21.2999 17.81Z" fill="black"/>
<path d="M8.28 17.81H2.7C2.31 17.81 2 17.5 2 17.11C2 16.72 2.31 16.41 2.7 16.41H8.28C8.67 16.41 8.98 16.72 8.98 17.11C8.98 17.5 8.66 17.81 8.28 17.81Z" fill="black"/>
<path d="M13.8602 21.07C16.0417 21.07 17.8102 19.3015 17.8102 17.12C17.8102 14.9385 16.0417 13.17 13.8602 13.17C11.6786 13.17 9.91016 14.9385 9.91016 17.12C9.91016 19.3015 11.6786 21.07 13.8602 21.07Z" fill="black"/>
</svg>
